<svg xmlns="http://www.w3.org/2000/svg" viewBox="0 0 640 400"><rect x="0" y="0" width="100%" height="100%" fill="#FFFDF9"/><text x="320" y="42" font-family="Inter, sans-serif" font-size="19" font-weight="800" fill="#22315B" text-anchor="middle" >Your mission: feed the pet 🐶</text><rect x="80" y="70" width="480" height="240" rx="14" fill="#F5F7FC" stroke="#E4E8F2" stroke-width="2"/><circle cx="120" cy="100" r="3" fill="#E4E8F2"/><circle cx="120" cy="145" r="3" fill="#E4E8F2"/><circle cx="120" cy="190" r="3" fill="#E4E8F2"/><circle cx="120" cy="235" r="3" fill="#E4E8F2"/><circle cx="120" cy="280" r="3" fill="#E4E8F2"/><circle cx="170" cy="100" r="3" fill="#E4E8F2"/><circle cx="170" cy="145" r="3" fill="#E4E8F2"/><circle cx="170" cy="190" r="3" fill="#E4E8F2"/><circle cx="170" cy="235" r="3" fill="#E4E8F2"/><circle cx="170" cy="280" r="3" fill="#E4E8F2"/><circle cx="220" cy="100" r="3" fill="#E4E8F2"/><circle cx="220" cy="145" r="3" fill="#E4E8F2"/><circle cx="220" cy="190" r="3" fill="#E4E8F2"/><circle cx="220" cy="235" r="3" fill="#E4E8F2"/><circle cx="220" cy="280" r="3" fill="#E4E8F2"/><circle cx="270" cy="100" r="3" fill="#E4E8F2"/><circle cx="270" cy="145" r="3" fill="#E4E8F2"/><circle cx="270" cy="190" r="3" fill="#E4E8F2"/><circle cx="270" cy="235" r="3" fill="#E4E8F2"/><circle cx="270" cy="280" r="3" fill="#E4E8F2"/><circle cx="320" cy="100" r="3" fill="#E4E8F2"/><circle cx="320" cy="145" r="3" fill="#E4E8F2"/><circle cx="320" cy="190" r="3" fill="#E4E8F2"/><circle cx="320" cy="235" r="3" fill="#E4E8F2"/><circle cx="320" cy="280" r="3" fill="#E4E8F2"/><circle cx="370" cy="100" r="3" fill="#E4E8F2"/><circle cx="370" cy="145" r="3" fill="#E4E8F2"/><circle cx="370" cy="190" r="3" fill="#E4E8F2"/><circle cx="370" cy="235" r="3" fill="#E4E8F2"/><circle cx="370" cy="280" r="3" fill="#E4E8F2"/><circle cx="420" cy="100" r="3" fill="#E4E8F2"/><circle cx="420" cy="145" r="3" fill="#E4E8F2"/><circle cx="420" cy="190" r="3" fill="#E4E8F2"/><circle cx="420" cy="235" r="3" fill="#E4E8F2"/><circle cx="420" cy="280" r="3" fill="#E4E8F2"/><circle cx="470" cy="100" r="3" fill="#E4E8F2"/><circle cx="470" cy="145" r="3" fill="#E4E8F2"/><circle cx="470" cy="190" r="3" fill="#E4E8F2"/><circle cx="470" cy="235" r="3" fill="#E4E8F2"/><circle cx="470" cy="280" r="3" fill="#E4E8F2"/><circle cx="520" cy="100" r="3" fill="#E4E8F2"/><circle cx="520" cy="145" r="3" fill="#E4E8F2"/><circle cx="520" cy="190" r="3" fill="#E4E8F2"/><circle cx="520" cy="235" r="3" fill="#E4E8F2"/><circle cx="520" cy="280" r="3" fill="#E4E8F2"/><rect x="470" y="250" width="60" height="34" rx="8" fill="#FF6B35"/><text x="500" y="272" font-family="Inter, sans-serif" font-size="12" font-weight="800" fill="#fff" text-anchor="middle" >feed</text><rect x="120" y="330" width="180" height="34" rx="17" fill="#1FA06B"/><text x="210.0" y="353" font-family="Inter, sans-serif" font-size="15" font-weight="800" fill="#fff" text-anchor="middle" >use at least 4 machines</text><rect x="320" y="330" width="200" height="34" rx="17" fill="#FF6B35"/><text x="420.0" y="353" font-family="Inter, sans-serif" font-size="15" font-weight="800" fill="#fff" text-anchor="middle" >3+ energy transformations</text></svg>