<svg xmlns="http://www.w3.org/2000/svg" viewBox="0 0 640 400"><rect x="0" y="0" width="100%" height="100%" fill="#FFFDF9"/><defs><marker id="ar" markerWidth="9" markerHeight="9" refX="7" refY="4.5" orient="auto"><path d="M0 0 L9 4.5 L0 9 z" fill="#5A6685"/></marker></defs><rect x="20" y="40" width="600" height="320" rx="20" fill="#fff" stroke="#E4E8F2" stroke-width="2"/><text x="320" y="80" font-family="Inter, sans-serif" font-size="18" font-weight="700" fill="#22315B" text-anchor="middle" >A chain reaction: each step triggers the next</text><circle cx="80" cy="200" r="30" fill="#FF6B35"/><text x="80" y="208" font-family="Inter, sans-serif" font-size="20" font-weight="800" fill="#fff" text-anchor="middle" >A</text><path d="M114 200 L136 200" stroke="#5A6685" stroke-width="3" marker-end="url(#ar)"/><circle cx="170" cy="200" r="30" fill="#EFA320"/><text x="170" y="208" font-family="Inter, sans-serif" font-size="20" font-weight="800" fill="#fff" text-anchor="middle" >B</text><path d="M204 200 L226 200" stroke="#5A6685" stroke-width="3" marker-end="url(#ar)"/><circle cx="260" cy="200" r="30" fill="#1FA06B"/><text x="260" y="208" font-family="Inter, sans-serif" font-size="20" font-weight="800" fill="#fff" text-anchor="middle" >C</text><path d="M294 200 L316 200" stroke="#5A6685" stroke-width="3" marker-end="url(#ar)"/><circle cx="350" cy="200" r="30" fill="#FF6B35"/><text x="350" y="208" font-family="Inter, sans-serif" font-size="20" font-weight="800" fill="#fff" text-anchor="middle" >D</text><path d="M384 200 L406 200" stroke="#5A6685" stroke-width="3" marker-end="url(#ar)"/><circle cx="440" cy="200" r="30" fill="#EFA320"/><text x="440" y="208" font-family="Inter, sans-serif" font-size="20" font-weight="800" fill="#fff" text-anchor="middle" >E</text><path d="M474 200 L496 200" stroke="#5A6685" stroke-width="3" marker-end="url(#ar)"/><circle cx="530" cy="200" r="30" fill="#22315B"/><text x="530" y="208" font-family="Inter, sans-serif" font-size="20" font-weight="800" fill="#fff" text-anchor="middle" >🐶</text><text x="320" y="300" font-family="Inter, sans-serif" font-size="15" font-weight="600" fill="#5A6685" text-anchor="middle" >One push at A → the food bowl fills at the end</text></svg>